# xmcd
#
# Track frame offsets:
# 150
# 17395
# 33955
# 49000
# 62903
# 73538
# 87185
# 105713
# 127613
# 145258
#
# Disc length: 2082 seconds
#
#
# Revision: 0
# Processed by: cddbd v1.5.2PL0 Copyright (c) Steve Scherf et al.
# Submitted via: Nero 7, 11, 10, 0 
#
DISCID=7908200a
DTITLE=Clifton Chenier - Boogie 'N' Zydeco 
DYEAR=1977
DGENRE=Blues
TTITLE0=Shake It, Don't Break It
TTITLE1=Oh! My Lucille
TTITLE2=Choo Choo Ch-Boogie
TTITLE3=Nonc Helaire
TTITLE4=You Can't Sit Down
TTITLE5=Hot Tamale Baby
TTITLE6=You Used To Call Me
TTITLE7=Road Runner
TTITLE8=Je Me Fu-Pas Mal
TTITLE9=Johnny Can't Dance
EXTD=
EXTT0=Shake It, Don't Break It
EXTT1=Oh! My Lucille
EXTT2=Choo Choo Ch-Boogie
EXTT3=Nonc Helaire
EXTT4=You Can't Sit Down
EXTT5=Hot Tamale Baby
EXTT6=You Used To Call Me
EXTT7=Road Runner
EXTT8=Je Me Fu-Pas Mal
EXTT9=Johnny Can't Dance
PLAYORDER=
